<?xml version="1.0" encoding="UTF-8" standalone="no"?>
<!-- Created with Inkscape (http://www.inkscape.org/) -->

<svg
   width="64pt"
   height="64pt"
   viewBox="0 0 22.577778 22.577778"
   version="1.1"
   id="svg831"
   inkscape:version="1.1.2 (b8e25be833, 2022-02-05)"
   sodipodi:docname="Export - Unblash - 64px.svg"
   inkscape:export-filename="E:\Icon Design\TR Icon Design Project\Carlos - Icon Design Project\2023\Januari 2023\Done\New folder\04 - Filter Funnel.png"
   inkscape:export-xdpi="576"
   inkscape:export-ydpi="576"
   xmlns:inkscape="http://www.inkscape.org/namespaces/inkscape"
   xmlns:sodipodi="http://sodipodi.sourceforge.net/DTD/sodipodi-0.dtd"
   xmlns="http://www.w3.org/2000/svg"
   xmlns:svg="http://www.w3.org/2000/svg"
   xmlns:rdf="http://www.w3.org/1999/02/22-rdf-syntax-ns#"
   xmlns:cc="http://creativecommons.org/ns#"
   xmlns:dc="http://purl.org/dc/elements/1.1/">
  <defs
     id="defs825">
    <pattern
       id="EMFhbasepattern"
       patternUnits="userSpaceOnUse"
       width="6"
       height="6"
       x="0"
       y="0" />
    <pattern
       id="EMFhbasepattern-9"
       patternUnits="userSpaceOnUse"
       width="6"
       height="6"
       x="0"
       y="0" />
    <pattern
       id="EMFhbasepattern-0"
       patternUnits="userSpaceOnUse"
       width="6"
       height="6"
       x="0"
       y="0" />
    <pattern
       id="EMFhbasepattern-7"
       patternUnits="userSpaceOnUse"
       width="6"
       height="6"
       x="0"
       y="0" />
    <pattern
       id="EMFhbasepattern-2"
       patternUnits="userSpaceOnUse"
       width="6"
       height="6"
       x="0"
       y="0" />
    <pattern
       id="EMFhbasepattern-98"
       patternUnits="userSpaceOnUse"
       width="6"
       height="6"
       x="0"
       y="0" />
    <pattern
       id="EMFhbasepattern-6"
       patternUnits="userSpaceOnUse"
       width="6"
       height="6"
       x="0"
       y="0" />
    <pattern
       id="EMFhbasepattern-01"
       patternUnits="userSpaceOnUse"
       width="6"
       height="6"
       x="0"
       y="0" />
    <pattern
       id="EMFhbasepattern-07"
       patternUnits="userSpaceOnUse"
       width="6"
       height="6"
       x="0"
       y="0" />
    <pattern
       id="EMFhbasepattern-8"
       patternUnits="userSpaceOnUse"
       width="6"
       height="6"
       x="0"
       y="0" />
    <pattern
       id="EMFhbasepattern-4"
       patternUnits="userSpaceOnUse"
       width="6"
       height="6"
       x="0"
       y="0" />
    <pattern
       id="EMFhbasepattern-40"
       patternUnits="userSpaceOnUse"
       width="6"
       height="6"
       x="0"
       y="0" />
    <pattern
       id="EMFhbasepattern-08"
       patternUnits="userSpaceOnUse"
       width="6"
       height="6"
       x="0"
       y="0" />
    <pattern
       id="EMFhbasepattern-04"
       patternUnits="userSpaceOnUse"
       width="6"
       height="6"
       x="0"
       y="0" />
    <pattern
       id="EMFhbasepattern-014"
       patternUnits="userSpaceOnUse"
       width="6"
       height="6"
       x="0"
       y="0" />
    <pattern
       id="EMFhbasepattern-27"
       patternUnits="userSpaceOnUse"
       width="6"
       height="6"
       x="0"
       y="0" />
    <pattern
       id="EMFhbasepattern-09"
       patternUnits="userSpaceOnUse"
       width="6"
       height="6"
       x="0"
       y="0" />
    <pattern
       id="EMFhbasepattern-5"
       patternUnits="userSpaceOnUse"
       width="6"
       height="6"
       x="0"
       y="0" />
    <pattern
       id="EMFhbasepattern-018"
       patternUnits="userSpaceOnUse"
       width="6"
       height="6"
       x="0"
       y="0" />
  </defs>
  <sodipodi:namedview
     id="base"
     pagecolor="#ffffff"
     bordercolor="#666666"
     borderopacity="1.0"
     inkscape:pageopacity="0.0"
     inkscape:pageshadow="2"
     inkscape:zoom="5.3085938"
     inkscape:cx="42.666667"
     inkscape:cy="42.57248"
     inkscape:document-units="pt"
     inkscape:current-layer="layer1"
     showgrid="false"
     units="pt"
     inkscape:window-width="958"
     inkscape:window-height="1041"
     inkscape:window-x="0"
     inkscape:window-y="0"
     inkscape:window-maximized="0"
     inkscape:pagecheckerboard="true"
     inkscape:showpageshadow="false"
     inkscape:object-paths="true"
     inkscape:snap-intersection-paths="true"
     inkscape:snap-smooth-nodes="true"
     inkscape:snap-midpoints="true"
     showguides="true"
     inkscape:snap-bbox="true"
     inkscape:bbox-nodes="true"
     inkscape:snap-nodes="false"
     inkscape:snap-global="true"
     inkscape:snap-others="false">
    <inkscape:grid
       type="xygrid"
       id="grid1378" />
    <sodipodi:guide
       position="0.97013831,21.607643"
       orientation="78.000048,0"
       id="guide1380"
       inkscape:locked="false" />
    <sodipodi:guide
       position="0.97013831,0.97013129"
       orientation="0,78.000005"
       id="guide1382"
       inkscape:locked="false" />
    <sodipodi:guide
       position="21.607639,0.97013129"
       orientation="-78.000048,0"
       id="guide1384"
       inkscape:locked="false" />
    <sodipodi:guide
       position="21.607639,21.607643"
       orientation="0,-78.000005"
       id="guide1386"
       inkscape:locked="false" />
  </sodipodi:namedview>
  <metadata
     id="metadata828">
    <rdf:RDF>
      <cc:Work
         rdf:about="">
        <dc:format>image/svg+xml</dc:format>
        <dc:type
           rdf:resource="http://purl.org/dc/dcmitype/StillImage" />
      </cc:Work>
    </rdf:RDF>
  </metadata>
  <g
     inkscape:label="Icon"
     inkscape:groupmode="layer"
     id="layer1"
     transform="translate(0,-274.42223)">
    <path
       id="path7205"
       style="color:#000000;display:inline;fill:#000000;stroke-width:1;stroke-linecap:round;stroke-linejoin:round;-inkscape-stroke:none"
       d="M 7.7099341,288.50554 H 14.86797 c 0.888964,0 1.447703,-1.01623 0.970438,-1.7662 l -3.071642,-4.62604 v -3.68167 c 0.34688,-0.13543 0.596344,-0.47374 0.59634,-0.86551 v -0.29784 c 8e-6,-0.50942 -0.421883,-0.93134 -0.931331,-0.93134 h -2.334527 c -0.5094479,0 -0.9313322,0.42192 -0.9313322,0.93134 v 0.29784 c 0,0.39155 0.2491064,0.72993 0.5956863,0.86551 v 3.68167 l -3.0208028,4.62506 c -0.4785647,0.75097 0.080174,1.76718 0.9691348,1.76718 z m 4.7218499,-11.50056 c 0.148742,0 0.263956,0.11452 0.263953,0.2633 v 0.29784 c 3e-6,0.14876 -0.115197,0.26136 -0.263953,0.26136 h -0.297843 c -0.184291,6.5e-4 -0.333107,0.1507 -0.332386,0.33498 10e-4,0.16966 0.129161,0.31156 0.297842,0.32978 v 0.67064 h -0.334991 c -0.184357,6.7e-4 -0.333113,0.15065 -0.332389,0.33499 6.67e-4,0.18339 0.148993,0.33176 0.332389,0.33239 h 0.334991 v 0.66738 h -0.334991 c -0.183396,6.7e-4 -0.331755,0.149 -0.332389,0.33239 -6.68e-4,0.18436 0.148028,0.33436 0.332389,0.33499 h 0.334991 v 0.66804 h -0.334991 c -0.1834,6.6e-4 -0.331761,0.14898 -0.332389,0.33238 -6.68e-4,0.18435 0.148032,0.33436 0.332389,0.33499 h 0.456214 l 0.995206,1.499 c -0.736159,-0.0169 -1.241166,-0.2729 -1.837903,-0.46469 -0.368201,-0.1183 -0.771568,-0.19289 -1.234392,-0.14012 -0.1544594,0.0175 -0.3155613,0.0492 -0.4842416,0.0984 l 0.7162626,-1.09623 c 0.03536,-0.0542 0.05409,-0.1178 0.05409,-0.18248 v -3.72209 c 0.168681,-0.0182 0.296835,-0.16012 0.297843,-0.32977 6.67e-4,-0.18429 -0.148095,-0.33427 -0.332385,-0.33499 h -0.297845 c -0.1487491,0 -0.2639524,-0.11262 -0.2639524,-0.26136 v -0.29784 c 0,-0.14409 0.1076551,-0.25642 0.2496134,-0.2633 z m -11.2763777,8.90208 c -0.16387521,0.28386 -0.22157338,0.61862 -0.16293436,0.94112 l 0.53963666,2.968 c 0.050385,0.27709 0.1853948,0.53213 0.3845266,0.73125 l 1.6723602,1.67302 v 2.52939 c 0,0.2281 0.1262817,0.335 0.3323853,0.335 h 3.670588 c 0.2335357,0 0.3349934,-0.14923 0.3349934,-0.335 v -3.00255 c 0,-0.27555 -0.070816,-0.54706 -0.2046444,-0.78795 l -1.364741,-2.45641 c -0.1024338,-0.1844 -0.2184809,-0.35963 -0.3473745,-0.52659 l -0.3760552,-0.48686 0.4601274,-0.79642 c 0.3257955,-0.56429 0.2585073,-1.27615 -0.1648892,-1.77143 l -0.2105115,-0.24635 0.099066,-0.17206 c 0.3257944,-0.56429 0.2611155,-1.27612 -0.1622798,-1.77142 l -0.2131208,-0.24831 0.067776,-0.11666 c 0.2597836,-0.44784 0.2179626,-1.01309 -0.103632,-1.41884 l -0.1277396,-0.16228 c -0.2932694,-0.37176 -0.9681838,-0.33936 -1.2167895,0.0913 z m 17.8343477,8.84282 v -2.52972 l 1.672359,-1.67236 c 0.22711,-0.2285 0.31495,-0.40591 0.383867,-0.73192 l 0.53964,-2.96801 c 0.05863,-0.3225 -10e-4,-0.65724 -0.16489,-0.94111 l -2.904146,-5.03012 c -0.327259,-0.56682 -0.888088,-0.44362 -1.21698,-0.0909 l -0.130349,0.16294 c -0.32159,0.40575 -0.360798,0.971 -0.101021,1.41883 l 0.06648,0.11477 -0.211816,0.24962 c -0.423396,0.49529 -0.488729,1.20712 -0.162933,1.77141 l 0.09907,0.17141 -0.212463,0.24701 c -0.423396,0.49529 -0.488077,1.20713 -0.162283,1.77143 l 0.459474,0.79577 -0.376051,0.4875 c -0.128895,0.16697 -0.244939,0.34221 -0.347379,0.5266 l -1.364086,2.4564 c -0.133824,0.24089 -0.204646,0.5124 -0.204646,0.78796 v 3.00255 c 0,0.22397 0.119359,0.33502 0.335011,0.33502 l 3.667324,3.3e-4 c 0.239756,0 0.335826,-0.12335 0.335826,-0.33531 z M 2.6922038,285.90186 c -0.3048989,0.51984 -0.2847703,1.17155 0.049527,1.673 l 1.5687359,2.35473 c 0.1020428,0.15397 0.3097507,0.19574 0.463385,0.0932 0.1537845,-0.10178 0.1958161,-0.30905 0.093845,-0.46273 l -1.5719923,-2.35473 c -0.1933971,-0.2901 -0.2031171,-0.66512 -0.026725,-0.96588 l 0.0958,-0.16489 c 0.074398,-0.12685 0.2281807,-0.13853 0.3180506,-0.0222 l 1.7981437,2.32997 c 0.1084497,0.14049 0.2064404,0.29063 0.2926288,0.44578 l 1.3647422,2.45575 c 0.078761,0.14177 0.1205698,0.30121 0.1205698,0.46338 v 2.67017 H 4.2537509 v -2.00278 c 0.1843569,6.7e-4 0.3343603,-0.14803 0.3349947,-0.33239 6.671e-4,-0.18532 -0.1496692,-0.33573 -0.3349947,-0.335 H 4.059534 l -1.5863282,-1.58633 0.2489626,-0.11086 c 0.168891,-0.0747 0.2445485,-0.27189 0.1694509,-0.44057 -0.03607,-0.0803 -0.1021815,-0.1437 -0.1844401,-0.17532 -0.082999,-0.0317 -0.175154,-0.0288 -0.2561338,0.008 l -0.2841561,0.12602 -0.5161785,-2.84158 c -0.030369,-0.16707 -0.00139,-0.33782 0.083428,-0.48489 l 2.904145,-5.03272 c 0.035276,-0.0612 0.086909,-0.0515 0.1179591,-0.008 l 0.1283942,0.16227 c 0.1525219,0.19244 0.1727401,0.45499 0.049527,0.66739 z m 18.1522012,0.3402 c 0.0849,0.14706 0.113797,0.31848 0.08341,0.48555 l -0.516175,2.84027 -0.284156,-0.12645 c -0.08102,-0.0363 -0.173205,-0.039 -0.256133,-0.008 -0.08234,0.0315 -0.148893,0.0942 -0.185095,0.17466 -0.07561,0.16809 -6.67e-4,0.36564 0.167496,0.44123 l 0.248965,0.11086 -1.58307,1.58632 h -0.198128 c -0.184294,6.7e-4 -0.333109,0.1507 -0.332389,0.335 6.67e-4,0.18327 0.149113,0.33166 0.332389,0.33238 v 2.00279 h -3.002557 v -2.67017 c 0,-0.16218 0.04182,-0.32096 0.120569,-0.46273 l 1.364739,-2.45641 c 0.08619,-0.15514 0.182224,-0.30528 0.290676,-0.44578 0.678619,-0.87676 1.151431,-1.48961 1.800842,-2.3301 0.08987,-0.1164 0.241043,-0.10467 0.31544,0.0222 l 0.09841,0.16489 c 0.176389,0.30075 0.166018,0.67578 -0.02736,0.96588 l -1.571339,2.35473 c -0.101967,0.15368 -0.05993,0.36093 0.09385,0.46273 0.15299,0.10027 0.358236,0.0588 0.460129,-0.0932 l 1.571988,-2.35473 c 0.334304,-0.50145 0.353782,-1.15316 0.04888,-1.67301 -0.848076,-1.45038 -1.497543,-2.5857 -2.241327,-3.86935 -0.123206,-0.2124 -0.102989,-0.47561 0.04953,-0.66804 l 0.127741,-0.16228 c 0.0468,-0.062 0.08149,-0.0613 0.118514,0.008 z m -3.355144,-3.14594 1.302821,2.25892 c -0.162626,0.0482 -0.313284,0.14439 -0.426235,0.29068 l -0.100365,0.13034 c -0.307513,-0.53764 -0.619873,-1.0722 -0.928727,-1.60784 -0.185581,-0.32144 -0.147981,-0.72089 0.0932,-1.00302 z m -12.3999656,6.7e-4 0.058658,0.0685 c 0.2411773,0.28212 0.2768185,0.68158 0.091247,1.00302 l -0.9287263,1.60848 -0.1010212,-0.131 c -0.1129396,-0.14628 -0.2617398,-0.24255 -0.4236286,-0.29066 z m 5.3084036,0.92351 c 0.267485,-1.9e-4 0.509822,0.0644 0.775568,0.1499 0.616235,0.19806 1.357533,0.57401 2.476606,0.48294 l 1.624782,2.44598 c 0.213558,0.3356 -0.009,0.73906 -0.406685,0.73906 H 7.7099341 c -0.3977717,0 -0.6202431,-0.40346 -0.4066845,-0.73906 l 1.6710549,-2.55743 c 0.6154782,-0.38934 1.0446595,-0.52111 1.4233945,-0.52139 z m -0.8967923,0.87463 c -0.1654933,-6.6e-4 -0.2998201,0.13366 -0.2991454,0.29916 3.33e-4,0.16472 0.1344201,0.29785 0.2991454,0.29718 0.163966,-3.4e-4 0.2967844,-0.13323 0.2971943,-0.29718 6.671e-4,-0.16474 -0.132464,-0.29875 -0.2971943,-0.29916 z m 3.8745833,0.2985 c -0.165491,-6.7e-4 -0.299821,0.13366 -0.299147,0.29914 6.67e-4,0.16448 0.134674,0.29722 0.299147,0.29655 0.163711,-3.3e-4 0.296426,-0.13283 0.297194,-0.29655 6.67e-4,-0.16472 -0.132465,-0.29873 -0.297194,-0.29914 z m 3.837432,0.0938 0.611984,1.05973 -0.439924,0.56962 -0.32196,-0.55658 c -0.185578,-0.32144 -0.149937,-0.72285 0.09125,-1.00498 z m -11.8479432,10e-4 0.056703,0.0665 c 0.2411786,0.28213 0.2794317,0.68354 0.093845,1.00498 l -0.3226072,0.55789 -0.4399232,-0.56896 z m 5.9249492,0.20269 c -0.165493,-6.6e-4 -0.29982,0.13365 -0.299146,0.29915 6.68e-4,0.16447 0.134675,0.29721 0.299146,0.29654 0.163458,-6.7e-4 0.295776,-0.13308 0.29654,-0.29654 6.69e-4,-0.16448 -0.132064,-0.29838 -0.29654,-0.29915 z m -1.19268,0.89353 c -0.1654899,-6.7e-4 -0.2998205,0.13366 -0.299147,0.29914 3.342e-4,0.16474 0.1344176,0.29787 0.299147,0.2972 0.163711,-6.7e-4 0.296132,-0.13348 0.29654,-0.2972 6.67e-4,-0.16447 -0.132068,-0.29837 -0.29654,-0.29914 z m 3.873932,0 c -0.165495,-6.7e-4 -0.299824,0.13365 -0.299151,0.29914 6.68e-4,0.16449 0.134674,0.29722 0.299151,0.29655 0.163711,-3.3e-4 0.296422,-0.13283 0.29719,-0.29655 6.67e-4,-0.16472 -0.132465,-0.29872 -0.29719,-0.29914 z m -5.3624995,0.29814 c -0.1654933,-6.6e-4 -0.2998239,0.13367 -0.2991491,0.29916 3.342e-4,0.16472 0.1344201,0.29785 0.2991491,0.29719 0.1637113,-6.7e-4 0.2961337,-0.13349 0.296541,-0.29719 6.672e-4,-0.16447 -0.132068,-0.29839 -0.296541,-0.29916 z m 3.8719735,0 c -0.165491,-6.6e-4 -0.29982,0.13367 -0.299146,0.29916 3.34e-4,0.16472 0.134416,0.29785 0.299146,0.29719 0.163711,-6.7e-4 0.296132,-0.13349 0.29654,-0.29719 6.67e-4,-0.16447 -0.132068,-0.29839 -0.29654,-0.29916 z"
       sodipodi:nodetypes="sscccsssssscccscsssccccccccccccccccccccsccscccsssccccccccccscccccccccccccccccccsccccccccccccccscccccccccccccccscccccccccccccccccccscccccccccscccscccccccccccccccccccccccccccccssccccccscccccccccccccccccccccccccccccccccccccccccccscccscccsc" />
  </g>
</svg>
